<svg width="208" height="233" viewBox="0 0 208 233" fill="none" xmlns="http://www.w3.org/2000/svg">
<g clip-path="url(#clip0_48_311)">
<path d="M203.068 32.135C201.792 36.3013 200.268 40.3413 198.532 44.2451C169.453 45.3487 143.097 63.7011 134.582 91.4558C133.254 95.7923 132.422 100.148 132.055 104.475C117.196 109.755 101.117 112.224 84.7379 111.393C84.588 100.839 86.0657 90.0799 89.3415 79.4137C104.708 29.3445 154.629 -2.52307 207.672 0.155648C207.821 10.7101 206.344 21.4687 203.068 32.135Z" fill="#10CCAD"/>
<path d="M118.34 32.1398C117.064 36.3061 115.54 40.3461 113.804 44.2499C84.7252 45.3535 58.3694 63.7059 49.8545 91.4606C48.5266 95.7971 47.6948 100.153 47.3279 104.48C32.4682 109.759 16.3891 112.229 0.0103293 111.398C-0.139508 100.843 1.3382 90.0847 4.61395 79.4185C19.98 29.3444 69.9017 -2.52314 122.944 0.160439C123.094 10.7149 121.616 21.4735 118.34 32.1398Z" fill="#4B31A1"/>
<path d="M4.60878 195.916C5.88498 191.75 7.40919 187.71 9.14524 183.806C38.224 182.702 64.5799 164.35 73.0948 136.595C74.4226 132.259 75.2545 127.903 75.6213 123.576C90.4811 118.296 106.56 115.827 122.939 116.658C123.089 127.212 121.611 137.971 118.335 148.637C102.974 198.711 53.0527 230.579 0.0103293 227.895C-0.139508 217.341 1.3382 206.582 4.61395 195.916H4.60878Z" fill="#4B31A1"/>
<path d="M89.3361 195.916C90.6123 191.75 92.1365 187.71 93.8726 183.806C122.951 182.702 149.307 164.35 157.822 136.595C159.15 132.259 159.982 127.903 160.349 123.576C175.208 118.296 191.287 115.827 207.666 116.658C207.816 127.212 206.338 137.971 203.063 148.637C187.697 198.711 137.77 230.579 84.7325 227.9C84.5827 217.346 86.0604 206.587 89.3361 195.921V195.916Z" fill="#10CCAD"/>
</g>
<defs>
<clipPath id="clip0_48_311">
<rect width="208" height="233" fill="white"/>
</clipPath>
</defs>
</svg>
