<?xml version="1.0" encoding="UTF-8"?>
<svg id="Layer_2" data-name="Layer 2" xmlns="http://www.w3.org/2000/svg" viewBox="0 0 402.57 479.27">
  <defs>
    <style>
      .cls-1 {
        fill: #ff8533;
      }

      .cls-2 {
        fill: #ccef00;
      }
    </style>
  </defs>
  <g id="Layer_6" data-name="Layer 6">
    <g>
      <path class="cls-1" d="m393.24,66.1c-2.47,8.57-5.42,16.88-8.78,24.91-56.28,2.27-107.29,40.02-123.77,97.11-2.57,8.92-4.18,17.88-4.89,26.78h0c-28.76,10.86-59.88,15.94-91.58,14.23-.29-21.71,2.57-43.84,8.91-65.78C202.87,60.36,299.49-5.19,402.15.32c.29,21.71-2.57,43.84-8.91,65.78Z"/>
      <path class="cls-1" d="m173.52,413.16c2.47-8.57,5.42-16.88,8.78-24.91,56.28-2.27,107.29-40.02,123.77-97.11,2.57-8.92,4.18-17.88,4.89-26.78h0c28.76-10.86,59.88-15.94,91.58-14.23.29,21.71-2.57,43.84-8.91,65.78-29.74,103-126.37,168.55-229.02,163.04-.29-21.71,2.57-43.84,8.91-65.78Z"/>
    </g>
  </g>
  <g id="Layer_5" data-name="Layer 5">
    <g>
      <path class="cls-2" d="m229.04,66.11c-2.47,8.57-5.42,16.88-8.78,24.91-56.28,2.27-107.29,40.02-123.77,97.11-2.57,8.92-4.18,17.88-4.89,26.78h0c-28.76,10.86-59.88,15.94-91.58,14.23-.29-21.71,2.57-43.84,8.91-65.78C38.67,60.36,135.29-5.19,237.95.33c.29,21.71-2.57,43.84-8.91,65.78Z"/>
      <path class="cls-2" d="m9.32,413.16c2.47-8.57,5.42-16.88,8.78-24.91,56.28-2.27,107.29-40.02,123.77-97.11,2.57-8.92,4.18-17.88,4.89-26.78h0c28.76-10.86,59.88-15.94,91.58-14.23.29,21.71-2.57,43.84-8.91,65.78C199.7,418.91,103.08,484.46.42,478.94c-.29-21.71,2.57-43.84,8.91-65.78Z"/>
    </g>
  </g>
</svg>